<svg width="243" height="24" viewBox="0 0 243 24" fill="none" xmlns="http://www.w3.org/2000/svg">
<path d="M19.0634 20.7344C18.0217 21.6198 16.8602 22.3021 15.579 22.7812C14.2977 23.25 12.9644 23.4844 11.579 23.4844C10.5165 23.4844 9.49045 23.3438 8.50087 23.0625C7.5217 22.7917 6.60504 22.4062 5.75087 21.9062C4.8967 21.3958 4.11545 20.7917 3.40712 20.0938C2.69879 19.3854 2.09462 18.6042 1.59462 17.75C1.09462 16.8854 0.703995 15.9583 0.422745 14.9688C0.151911 13.9792 0.0164948 12.9531 0.0164948 11.8906C0.0164948 10.8281 0.151911 9.80729 0.422745 8.82812C0.703995 7.84896 1.09462 6.93229 1.59462 6.07812C2.09462 5.21354 2.69879 4.43229 3.40712 3.73438C4.11545 3.02604 4.8967 2.42188 5.75087 1.92188C6.60504 1.42188 7.5217 1.03646 8.50087 0.765625C9.49045 0.484375 10.5165 0.34375 11.579 0.34375C12.9644 0.34375 14.2977 0.583333 15.579 1.0625C16.8602 1.53125 18.0217 2.20833 19.0634 3.09375L16.7196 7C16.0425 6.3125 15.2613 5.77604 14.3759 5.39062C13.4905 4.99479 12.5582 4.79688 11.579 4.79688C10.5998 4.79688 9.67795 4.98438 8.81337 5.35938C7.9592 5.73438 7.2092 6.24479 6.56337 6.89062C5.91754 7.52604 5.40712 8.27604 5.03212 9.14062C4.65712 9.99479 4.46962 10.9115 4.46962 11.8906C4.46962 12.8802 4.65712 13.8073 5.03212 14.6719C5.40712 15.5365 5.91754 16.2917 6.56337 16.9375C7.2092 17.5833 7.9592 18.0938 8.81337 18.4688C9.67795 18.8438 10.5998 19.0312 11.579 19.0312C12.1415 19.0312 12.6884 18.9635 13.2196 18.8281C13.7509 18.6927 14.2561 18.5052 14.7352 18.2656V11.8906H19.0634V20.7344ZM44.4696 11.8906C44.4696 12.9531 44.329 13.9792 44.0477 14.9688C43.7769 15.9479 43.3915 16.8698 42.8915 17.7344C42.3915 18.5885 41.7873 19.3698 41.079 20.0781C40.3707 20.7865 39.5894 21.3958 38.7352 21.9062C37.8811 22.4062 36.9592 22.7917 35.9696 23.0625C34.98 23.3438 33.954 23.4844 32.8915 23.4844C31.829 23.4844 30.803 23.3438 29.8134 23.0625C28.8342 22.7917 27.9123 22.4062 27.0477 21.9062C26.1936 21.3958 25.4123 20.7865 24.704 20.0781C23.9957 19.3698 23.3863 18.5885 22.8759 17.7344C22.3759 16.8698 21.9852 15.9479 21.704 14.9688C21.4332 13.9792 21.2977 12.9531 21.2977 11.8906C21.2977 10.8281 21.4332 9.80208 21.704 8.8125C21.9852 7.82292 22.3759 6.90104 22.8759 6.04688C23.3863 5.19271 23.9957 4.41146 24.704 3.70312C25.4123 2.99479 26.1936 2.39062 27.0477 1.89062C27.9123 1.39062 28.8342 1.00521 29.8134 0.734375C30.803 0.453125 31.829 0.3125 32.8915 0.3125C33.954 0.3125 34.98 0.453125 35.9696 0.734375C36.9592 1.00521 37.8811 1.39062 38.7352 1.89062C39.5894 2.39062 40.3707 2.99479 41.079 3.70312C41.7873 4.41146 42.3915 5.19271 42.8915 6.04688C43.3915 6.90104 43.7769 7.82292 44.0477 8.8125C44.329 9.80208 44.4696 10.8281 44.4696 11.8906ZM40.0165 11.8906C40.0165 10.9115 39.829 9.98958 39.454 9.125C39.079 8.25 38.5686 7.49479 37.9227 6.85938C37.2873 6.21354 36.5321 5.70312 35.6571 5.32812C34.7925 4.95312 33.8707 4.76562 32.8915 4.76562C31.9019 4.76562 30.9748 4.95312 30.1102 5.32812C29.2457 5.70312 28.4905 6.21354 27.8446 6.85938C27.1988 7.49479 26.6884 8.25 26.3134 9.125C25.9384 9.98958 25.7509 10.9115 25.7509 11.8906C25.7509 12.8698 25.9384 13.7917 26.3134 14.6562C26.6884 15.5104 27.1988 16.2604 27.8446 16.9062C28.4905 17.5521 29.2457 18.0625 30.1102 18.4375C30.9748 18.8125 31.9019 19 32.8915 19C33.8707 19 34.7925 18.8125 35.6571 18.4375C36.5321 18.0625 37.2873 17.5521 37.9227 16.9062C38.5686 16.2604 39.079 15.5104 39.454 14.6562C39.829 13.7917 40.0165 12.8698 40.0165 11.8906ZM65.0946 14.0469C65.0946 15.2865 64.8602 16.4531 64.3915 17.5469C63.9227 18.6302 63.2821 19.5781 62.4696 20.3906C61.6571 21.1927 60.704 21.8281 59.6102 22.2969C58.5269 22.7656 57.3655 23 56.1259 23C54.8863 23 53.7196 22.7656 52.6259 22.2969C51.5425 21.8281 50.5946 21.1927 49.7821 20.3906C48.98 19.5781 48.3446 18.6302 47.8759 17.5469C47.4071 16.4531 47.1727 15.2865 47.1727 14.0469V0.59375H51.6415V14.0469C51.6415 14.6615 51.7561 15.2396 51.9852 15.7812C52.2248 16.3229 52.5477 16.7969 52.954 17.2031C53.3602 17.6094 53.8342 17.9323 54.3759 18.1719C54.928 18.401 55.5113 18.5156 56.1259 18.5156C56.7405 18.5156 57.3186 18.401 57.8602 18.1719C58.4123 17.9323 58.8915 17.6094 59.2977 17.2031C59.704 16.7969 60.0217 16.3229 60.2509 15.7812C60.4905 15.2396 60.6102 14.6615 60.6102 14.0469V0.59375H65.0946V14.0469ZM73.4696 5.07812V14.0469H77.954C78.5686 14.0469 79.1467 13.9323 79.6884 13.7031C80.23 13.4635 80.704 13.1406 81.1102 12.7344C81.5165 12.3281 81.8342 11.8542 82.0634 11.3125C82.303 10.7604 82.4227 10.1771 82.4227 9.5625C82.4227 8.94792 82.303 8.36979 82.0634 7.82812C81.8342 7.27604 81.5165 6.79688 81.1102 6.39062C80.704 5.98438 80.23 5.66667 79.6884 5.4375C79.1467 5.19792 78.5686 5.07812 77.954 5.07812H73.4696ZM73.4696 23H68.9852V0.59375H77.954C78.7769 0.59375 79.5686 0.703125 80.329 0.921875C81.0894 1.13021 81.7977 1.43229 82.454 1.82812C83.1207 2.21354 83.7248 2.68229 84.2665 3.23438C84.8186 3.77604 85.2873 4.38021 85.6727 5.04688C86.0686 5.71354 86.3707 6.42708 86.579 7.1875C86.7977 7.94792 86.9071 8.73958 86.9071 9.5625C86.9071 10.3333 86.8082 11.0833 86.6102 11.8125C86.4227 12.5417 86.1467 13.2344 85.7821 13.8906C85.428 14.5469 84.9905 15.151 84.4696 15.7031C83.9488 16.2552 83.3655 16.7344 82.7196 17.1406L85.204 23H80.4384L78.4852 18.4844L73.4696 18.5156V23ZM112.095 23H107.626V7C107.626 6.6875 107.563 6.39583 107.438 6.125C107.324 5.85417 107.162 5.61979 106.954 5.42188C106.756 5.21354 106.522 5.05208 106.251 4.9375C105.98 4.82292 105.688 4.76562 105.376 4.76562C105.063 4.76562 104.772 4.82292 104.501 4.9375C104.23 5.05208 103.99 5.21354 103.782 5.42188C103.584 5.61979 103.428 5.85417 103.313 6.125C103.199 6.39583 103.141 6.6875 103.141 7V23H98.6571V7C98.6571 6.6875 98.5998 6.39583 98.4852 6.125C98.3707 5.85417 98.2092 5.61979 98.0009 5.42188C97.803 5.21354 97.5686 5.05208 97.2977 4.9375C97.0269 4.82292 96.7352 4.76562 96.4227 4.76562C96.1102 4.76562 95.8186 4.82292 95.5477 4.9375C95.2769 5.05208 95.0373 5.21354 94.829 5.42188C94.6311 5.61979 94.4748 5.85417 94.3602 6.125C94.2457 6.39583 94.1884 6.6875 94.1884 7V23H89.704V7C89.704 6.07292 89.8759 5.20312 90.2196 4.39062C90.5738 3.56771 91.053 2.85417 91.6571 2.25C92.2717 1.63542 92.9852 1.15625 93.7977 0.8125C94.6207 0.458333 95.4957 0.28125 96.4227 0.28125C97.2561 0.28125 98.0582 0.432292 98.829 0.734375C99.5998 1.02604 100.293 1.45312 100.907 2.01562C101.522 1.45312 102.209 1.02604 102.97 0.734375C103.74 0.432292 104.543 0.28125 105.376 0.28125C106.303 0.28125 107.173 0.458333 107.985 0.8125C108.808 1.15625 109.522 1.63542 110.126 2.25C110.74 2.85417 111.22 3.56771 111.563 4.39062C111.918 5.20312 112.095 6.07292 112.095 7V23ZM131.47 23H116.11V0.59375H131.47V5.07812H120.595V9.5625H127.954V14.0469H120.595V18.5156H131.47V23ZM144.016 23H139.548V5.07812H132.813V0.59375H150.735V5.07812H144.016V23ZM160.766 7.3125C160.766 6.38542 160.944 5.51562 161.298 4.70312C161.652 3.89062 162.131 3.18229 162.735 2.57812C163.35 1.96354 164.063 1.47917 164.876 1.125C165.688 0.770833 166.558 0.59375 167.485 0.59375H177.766V5.07812H167.485C167.173 5.07812 166.881 5.13542 166.61 5.25C166.339 5.36458 166.1 5.52604 165.891 5.73438C165.694 5.93229 165.537 6.16667 165.423 6.4375C165.308 6.70833 165.251 7 165.251 7.3125C165.251 7.625 165.308 7.92188 165.423 8.20312C165.537 8.47396 165.694 8.71354 165.891 8.92188C166.1 9.11979 166.339 9.27604 166.61 9.39062C166.881 9.50521 167.173 9.5625 167.485 9.5625H171.97C172.897 9.5625 173.766 9.73958 174.579 10.0938C175.402 10.4375 176.115 10.9167 176.72 11.5312C177.334 12.1354 177.813 12.849 178.157 13.6719C178.511 14.4844 178.688 15.3542 178.688 16.2812C178.688 17.2083 178.511 18.0781 178.157 18.8906C177.813 19.7031 177.334 20.4167 176.72 21.0312C176.115 21.6354 175.402 22.1146 174.579 22.4688C173.766 22.8229 172.897 23 171.97 23H162.016V18.5156H171.97C172.282 18.5156 172.574 18.4583 172.845 18.3438C173.115 18.2292 173.35 18.0729 173.548 17.875C173.756 17.6667 173.918 17.4271 174.032 17.1562C174.147 16.8854 174.204 16.5938 174.204 16.2812C174.204 15.9688 174.147 15.6771 174.032 15.4062C173.918 15.1354 173.756 14.901 173.548 14.7031C173.35 14.4948 173.115 14.3333 172.845 14.2188C172.574 14.1042 172.282 14.0469 171.97 14.0469H167.485C166.558 14.0469 165.688 13.8698 164.876 13.5156C164.063 13.1615 163.35 12.6823 162.735 12.0781C162.131 11.4635 161.652 10.75 161.298 9.9375C160.944 9.11458 160.766 8.23958 160.766 7.3125ZM186.126 5.07812V14.0469H190.61C191.225 14.0469 191.803 13.9323 192.345 13.7031C192.886 13.4635 193.36 13.1406 193.766 12.7344C194.173 12.3281 194.49 11.8542 194.72 11.3125C194.959 10.7604 195.079 10.1771 195.079 9.5625C195.079 8.94792 194.959 8.36979 194.72 7.82812C194.49 7.27604 194.173 6.79688 193.766 6.39062C193.36 5.98438 192.886 5.66667 192.345 5.4375C191.803 5.19792 191.225 5.07812 190.61 5.07812H186.126ZM186.126 23H181.641V0.59375H190.61C191.433 0.59375 192.225 0.703125 192.985 0.921875C193.746 1.13021 194.454 1.43229 195.11 1.82812C195.777 2.21354 196.381 2.68229 196.923 3.23438C197.475 3.77604 197.944 4.38021 198.329 5.04688C198.725 5.71354 199.027 6.42708 199.235 7.1875C199.454 7.94792 199.563 8.73958 199.563 9.5625C199.563 10.7917 199.329 11.9531 198.86 13.0469C198.391 14.1302 197.751 15.0781 196.938 15.8906C196.126 16.7031 195.173 17.3438 194.079 17.8125C192.996 18.2812 191.839 18.5156 190.61 18.5156H186.126V23ZM224.157 11.8906C224.157 12.9531 224.016 13.9792 223.735 14.9688C223.464 15.9479 223.079 16.8698 222.579 17.7344C222.079 18.5885 221.475 19.3698 220.766 20.0781C220.058 20.7865 219.277 21.3958 218.423 21.9062C217.569 22.4062 216.647 22.7917 215.657 23.0625C214.668 23.3438 213.641 23.4844 212.579 23.4844C211.516 23.4844 210.49 23.3438 209.501 23.0625C208.522 22.7917 207.6 22.4062 206.735 21.9062C205.881 21.3958 205.1 20.7865 204.391 20.0781C203.683 19.3698 203.074 18.5885 202.563 17.7344C202.063 16.8698 201.673 15.9479 201.391 14.9688C201.121 13.9792 200.985 12.9531 200.985 11.8906C200.985 10.8281 201.121 9.80208 201.391 8.8125C201.673 7.82292 202.063 6.90104 202.563 6.04688C203.074 5.19271 203.683 4.41146 204.391 3.70312C205.1 2.99479 205.881 2.39062 206.735 1.89062C207.6 1.39062 208.522 1.00521 209.501 0.734375C210.49 0.453125 211.516 0.3125 212.579 0.3125C213.641 0.3125 214.668 0.453125 215.657 0.734375C216.647 1.00521 217.569 1.39062 218.423 1.89062C219.277 2.39062 220.058 2.99479 220.766 3.70312C221.475 4.41146 222.079 5.19271 222.579 6.04688C223.079 6.90104 223.464 7.82292 223.735 8.8125C224.016 9.80208 224.157 10.8281 224.157 11.8906ZM219.704 11.8906C219.704 10.9115 219.516 9.98958 219.141 9.125C218.766 8.25 218.256 7.49479 217.61 6.85938C216.975 6.21354 216.22 5.70312 215.345 5.32812C214.48 4.95312 213.558 4.76562 212.579 4.76562C211.589 4.76562 210.662 4.95312 209.798 5.32812C208.933 5.70312 208.178 6.21354 207.532 6.85938C206.886 7.49479 206.376 8.25 206.001 9.125C205.626 9.98958 205.438 10.9115 205.438 11.8906C205.438 12.8698 205.626 13.7917 206.001 14.6562C206.376 15.5104 206.886 16.2604 207.532 16.9062C208.178 17.5521 208.933 18.0625 209.798 18.4375C210.662 18.8125 211.589 19 212.579 19C213.558 19 214.48 18.8125 215.345 18.4375C216.22 18.0625 216.975 17.5521 217.61 16.9062C218.256 16.2604 218.766 15.5104 219.141 14.6562C219.516 13.7917 219.704 12.8698 219.704 11.8906ZM235.798 23H231.329V5.07812H224.595V0.59375H242.516V5.07812H235.798V23Z" fill="#FF657E"/>
</svg>
